<svg width="180" height="180" viewBox="0 0 180 180" fill="none" xmlns="http://www.w3.org/2000/svg">
<rect width="180" height="180" fill="white"/>
<path d="M107.5 54.9992C110.755 54.9992 113.505 57.0967 114.54 59.9991H140.46C141.495 57.0967 144.245 54.9992 147.5 54.9992C151.635 54.9992 155 58.3641 155 62.499C155 66.634 151.635 69.9989 147.5 69.9989C144.245 69.9989 141.495 67.9014 140.46 64.999H114.537C113.502 67.9014 110.752 69.9989 107.497 69.9989C103.362 69.9989 99.9973 66.634 99.9973 62.499C99.9973 58.3641 103.365 54.9992 107.5 54.9992ZM147.5 64.999C148.877 64.999 150 63.879 150 62.499C150 61.1191 148.877 59.9991 147.5 59.9991C146.122 59.9991 145 61.1191 145 62.499C145 63.879 146.122 64.999 147.5 64.999ZM107.5 64.999C108.877 64.999 110 63.879 110 62.499C110 61.1191 108.877 59.9991 107.5 59.9991C106.122 59.9991 105 61.1191 105 62.499C105 63.879 106.122 64.999 107.5 64.999Z" fill="#00B2FF"/>
<path d="M87.5011 70.4589V54.9992C87.5011 54.3342 87.7636 53.6992 88.2336 53.2317L98.2336 43.232C98.7011 42.762 99.3386 42.4995 100.001 42.4995H107.961C108.996 39.597 111.746 37.4996 115.001 37.4996C119.136 37.4996 122.501 40.8645 122.501 44.9994C122.501 49.1343 119.136 52.4993 115.001 52.4993C111.746 52.4993 108.996 50.4018 107.961 47.4994H101.036L92.5011 56.0342V70.4589C95.4036 71.4938 97.5011 74.2438 97.5011 77.4987C97.5011 81.6336 94.1361 84.9986 90.0011 84.9986C85.8661 84.9986 82.5012 81.6336 82.5012 77.4987C82.5012 74.2438 84.5987 71.4938 87.5011 70.4589ZM115.001 47.4994C116.379 47.4994 117.501 46.3794 117.501 44.9994C117.501 43.6194 116.379 42.4995 115.001 42.4995C113.624 42.4995 112.501 43.6194 112.501 44.9994C112.501 46.3794 113.624 47.4994 115.001 47.4994ZM90.0011 79.9987C91.3786 79.9987 92.5011 78.8787 92.5011 77.4987C92.5011 76.1188 91.3786 74.9988 90.0011 74.9988C88.6236 74.9988 87.5011 76.1188 87.5011 77.4987C87.5011 78.8787 88.6236 79.9987 90.0011 79.9987Z" fill="#00B2FF"/>
<path d="M42.5007 79.9986C43.6557 79.9986 44.7357 80.2811 45.7132 80.7511L50.0007 76.4637V52.4992C50.0007 51.8342 50.2632 51.1992 50.7332 50.7317L75.7531 25.7123C75.2831 24.7348 75.0006 23.6548 75.0006 22.4998C75.0006 18.3649 78.3655 15 82.5005 15C86.6355 15 90.0005 18.3649 90.0005 22.4998C90.0005 26.6348 86.6355 29.9997 82.5005 29.9997C81.3455 29.9997 80.2655 29.7172 79.288 29.2472L55.0007 53.5342V77.4987C55.0007 78.1637 54.7382 78.7987 54.2682 79.2661L49.2482 84.286C49.7182 85.2635 50.0007 86.3435 50.0007 87.4985C50.0007 91.6334 46.6357 94.9983 42.5007 94.9983C38.3657 94.9983 35.0007 91.6334 35.0007 87.4985C35.0007 83.3636 38.3657 79.9986 42.5007 79.9986ZM82.5005 24.9998C83.878 24.9998 85.0005 23.8798 85.0005 22.4998C85.0005 21.1199 83.878 19.9999 82.5005 19.9999C81.123 19.9999 80.0005 21.1199 80.0005 22.4998C80.0005 23.8798 81.123 24.9998 82.5005 24.9998ZM42.5007 89.9984C43.8782 89.9984 45.0007 88.8784 45.0007 87.4985C45.0007 86.1185 43.8782 84.9985 42.5007 84.9985C41.1232 84.9985 40.0007 86.1185 40.0007 87.4985C40.0007 88.8784 41.1232 89.9984 42.5007 89.9984Z" fill="#00B2FF"/>
<path d="M20.0007 50.4592V39.9995C20.0007 39.3345 20.2632 38.6995 20.7332 38.232L38.2331 20.7324C38.7006 20.2624 39.3381 19.9999 40.0006 19.9999H52.9606C53.9955 17.0975 56.7455 15 60.0005 15C64.1355 15 67.5005 18.3649 67.5005 22.4998C67.5005 26.6348 64.1355 29.9997 60.0005 29.9997C56.7455 29.9997 53.9955 27.9022 52.9606 24.9998H41.0356L25.0007 41.0344V50.4592C27.9032 51.4942 30.0007 54.2442 30.0007 57.4991C30.0007 61.634 26.6357 64.9989 22.5007 64.9989C18.3657 64.9989 15.0007 61.634 15.0007 57.4991C15.0007 54.2442 17.0982 51.4942 20.0007 50.4592ZM60.0005 24.9998C61.378 24.9998 62.5005 23.8798 62.5005 22.4998C62.5005 21.1199 61.378 19.9999 60.0005 19.9999C58.623 19.9999 57.5005 21.1199 57.5005 22.4998C57.5005 23.8798 58.623 24.9998 60.0005 24.9998ZM22.5007 59.999C23.8782 59.999 25.0007 58.8791 25.0007 57.4991C25.0007 56.1191 23.8782 54.9992 22.5007 54.9992C21.1232 54.9992 20.0007 56.1191 20.0007 57.4991C20.0007 58.8791 21.1232 59.999 22.5007 59.999Z" fill="#00B2FF"/>
<path d="M54.9979 150.46V114.538C52.0979 113.503 50.0004 110.753 50.0004 107.498C50.0004 103.363 53.3654 99.9982 57.5004 99.9982C60.7554 99.9982 63.5054 102.096 64.5404 104.998H90.4602C91.4952 102.096 94.2452 99.9982 97.5002 99.9982C100.755 99.9982 103.505 102.096 104.54 104.998H118.965L128.253 95.7108C127.783 94.7334 127.5 93.6534 127.5 92.4984C127.5 88.3635 130.865 84.9986 135 84.9986C139.135 84.9986 142.5 88.3635 142.5 92.4984C142.5 96.6333 139.135 99.9982 135 99.9982C133.845 99.9982 132.765 99.7158 131.788 99.2458L121.768 109.266C121.3 109.736 120.663 109.998 120 109.998H104.54C103.505 112.9 100.755 114.998 97.5002 114.998C94.2452 114.998 91.4952 112.9 90.4602 109.998H64.5379C63.7829 112.115 62.1154 113.783 59.9979 114.538V150.46C62.9004 151.495 64.9979 154.245 64.9979 157.5C64.9979 161.634 61.6329 164.999 57.4979 164.999C53.3629 164.999 49.9979 161.634 49.9979 157.5C49.9979 154.245 52.0954 151.495 54.9979 150.46ZM135 94.9984C136.378 94.9984 137.5 93.8784 137.5 92.4984C137.5 91.1184 136.378 89.9985 135 89.9985C133.623 89.9985 132.5 91.1184 132.5 92.4984C132.5 93.8784 133.623 94.9984 135 94.9984ZM97.5002 109.998C98.8777 109.998 100 108.878 100 107.498C100 106.118 98.8777 104.998 97.5002 104.998C96.1227 104.998 95.0002 106.118 95.0002 107.498C95.0002 108.878 96.1227 109.998 97.5002 109.998ZM57.5004 159.997C58.8779 159.997 60.0004 158.877 60.0004 157.497C60.0004 156.117 58.8779 154.997 57.5004 154.997C56.1229 154.997 55.0004 156.117 55.0004 157.497C55.0004 158.877 56.1229 159.997 57.5004 159.997ZM57.5004 109.998C58.8779 109.998 60.0004 108.878 60.0004 107.498C60.0004 106.118 58.8779 104.998 57.5004 104.998C56.1229 104.998 55.0004 106.118 55.0004 107.498C55.0004 108.878 56.1229 109.998 57.5004 109.998Z" fill="#00B2FF"/>
<path d="M67.5013 65.4589V57.4991C67.5013 56.8341 67.7638 56.1991 68.2338 55.7316L98.2537 25.7123C97.7837 24.7348 97.5012 23.6548 97.5012 22.4998C97.5012 18.3649 100.866 15 105.001 15C108.256 15 111.006 17.0975 112.041 19.9999H122.501C123.881 19.9999 125.001 21.1174 125.001 22.4998V28.9647L134.289 38.252C135.266 37.782 136.346 37.4995 137.501 37.4995C141.636 37.4995 145.001 40.8644 145.001 44.9994C145.001 49.1343 141.636 52.4992 137.501 52.4992C133.366 52.4992 130.001 49.1343 130.001 44.9994C130.001 43.8444 130.284 42.7644 130.754 41.7869L120.734 31.7671C120.264 31.2997 120.001 30.6647 120.001 29.9997V24.9998H112.041C111.006 27.9022 108.256 29.9997 105.001 29.9997C103.846 29.9997 102.766 29.7172 101.789 29.2472L72.5013 58.5341V65.4589C75.4038 66.4939 77.5013 69.2438 77.5013 72.4988C77.5013 76.6337 74.1363 79.9986 70.0013 79.9986C65.8663 79.9986 62.5014 76.6337 62.5014 72.4988C62.5014 69.2438 64.5988 66.4939 67.5013 65.4589ZM137.501 47.4993C138.879 47.4993 140.001 46.3793 140.001 44.9994C140.001 43.6194 138.879 42.4994 137.501 42.4994C136.124 42.4994 135.001 43.6194 135.001 44.9994C135.001 46.3793 136.124 47.4993 137.501 47.4993ZM105.001 24.9998C106.379 24.9998 107.501 23.8798 107.501 22.4998C107.501 21.1199 106.379 19.9999 105.001 19.9999C103.624 19.9999 102.501 21.1199 102.501 22.4998C102.501 23.8798 103.624 24.9998 105.001 24.9998ZM70.0013 74.9987C71.3788 74.9987 72.5013 73.8787 72.5013 72.4988C72.5013 71.1188 71.3788 69.9988 70.0013 69.9988C68.6238 69.9988 67.5013 71.1188 67.5013 72.4988C67.5013 73.8787 68.6238 74.9987 70.0013 74.9987Z" fill="#00B2FF"/>
<path d="M75.0004 84.9985C78.2554 84.9985 81.0054 87.096 82.0404 89.9984H111.465L125.733 75.7312C126.2 75.2612 126.838 74.9987 127.5 74.9987H153.965L160 68.9639V48.5343L140.713 29.2472C139.735 29.7172 138.655 29.9997 137.5 29.9997C133.365 29.9997 130 26.6348 130 22.4998C130 18.3649 133.365 15 137.5 15C141.635 15 145 18.3649 145 22.4998C145 23.6548 144.718 24.7348 144.248 25.7123L164.268 45.7318C164.738 46.1993 165 46.8343 165 47.4993V69.9988C165 70.6638 164.738 71.2988 164.268 71.7663L156.768 79.2661C156.3 79.7361 155.663 79.9986 155 79.9986H128.535L114.268 94.2658C113.8 94.7358 113.163 94.9983 112.5 94.9983H82.0404C81.0054 97.9007 78.2554 99.9982 75.0004 99.9982C70.8654 99.9982 67.5004 96.6333 67.5004 92.4984C67.5004 88.3634 70.8654 84.9985 75.0004 84.9985ZM137.5 19.9999C136.123 19.9999 135 21.1199 135 22.4998C135 23.8798 136.123 24.9998 137.5 24.9998C138.878 24.9998 140 23.8798 140 22.4998C140 21.1199 138.878 19.9999 137.5 19.9999ZM75.0004 94.9983C76.3779 94.9983 77.5004 93.8783 77.5004 92.4984C77.5004 91.1184 76.3779 89.9984 75.0004 89.9984C73.6229 89.9984 72.5004 91.1184 72.5004 92.4984C72.5004 93.8783 73.6229 94.9983 75.0004 94.9983Z" fill="#00B2FF"/>
<path d="M22.5001 74.9988C23.6551 74.9988 24.7351 75.2813 25.7126 75.7513L35.0001 66.464V52.0393C32.0976 51.0043 30.0001 48.2543 30.0001 44.9994C30.0001 40.8645 33.3651 37.4996 37.5001 37.4996C41.635 37.4996 45 40.8645 45 44.9994C45 48.2543 42.9025 51.0043 40 52.0393V67.4989C40 68.1639 39.7375 68.7989 39.2676 69.2664L29.2476 79.2862C29.7176 80.2637 30.0001 81.3436 30.0001 82.4986C30.0001 85.7535 27.9026 88.5035 25.0001 89.5385V91.4634L44.2675 110.731C44.7375 111.198 45 111.833 45 112.498V115.458C47.9025 116.493 50 119.243 50 122.498C50 125.753 47.9025 128.503 45 129.538V135.46C47.9025 136.495 50 139.245 50 142.5C50 146.635 46.635 150 42.5 150C38.3651 150 35.0001 146.635 35.0001 142.5C35.0001 139.245 37.0976 136.495 40 135.46V129.538C37.0976 128.503 35.0001 125.753 35.0001 122.498C35.0001 119.243 37.0976 116.493 40 115.458V113.533L20.7326 94.2659C20.2626 93.7984 20.0001 93.1634 20.0001 92.4984V89.5385C17.0977 88.5035 15.0002 85.7535 15.0002 82.4986C15.0002 78.3637 18.3651 74.9988 22.5001 74.9988ZM37.5001 47.4994C38.8776 47.4994 40 46.3794 40 44.9994C40 43.6194 38.8776 42.4995 37.5001 42.4995C36.1226 42.4995 35.0001 43.6194 35.0001 44.9994C35.0001 46.3794 36.1226 47.4994 37.5001 47.4994ZM42.5 144.997C43.8775 144.997 45 143.877 45 142.497C45 141.117 43.8775 139.997 42.5 139.997C41.1225 139.997 40 141.117 40 142.497C40 143.877 41.1225 144.997 42.5 144.997ZM42.5 124.998C43.8775 124.998 45 123.878 45 122.498C45 121.118 43.8775 119.998 42.5 119.998C41.1225 119.998 40 121.118 40 122.498C40 123.878 41.1225 124.998 42.5 124.998ZM22.5001 84.9986C23.8776 84.9986 25.0001 83.8786 25.0001 82.4986C25.0001 81.1186 23.8776 79.9987 22.5001 79.9987C21.1226 79.9987 20.0001 81.1186 20.0001 82.4986C20.0001 83.8786 21.1226 84.9986 22.5001 84.9986Z" fill="#00B2FF"/>
</svg>
