<svg width="20" height="20" viewBox="0 0 20 20" fill="none" id="mail" xmlns="http://www.w3.org/2000/svg">
<path d="M17.5584 0H2.44568C1.09663 0 0 1.441 0 3.2137V16.7863C0 18.559 1.09663 20 2.44568 20H17.5543C18.9034 20 20 18.559 20 16.7863V3.21914C20.0041 1.44644 18.9075 0 17.5584 0ZM18.8868 16.7863C18.8868 17.7488 18.2909 18.5318 17.5584 18.5318H2.44568C1.71322 18.5318 1.11732 17.7488 1.11732 16.7863V3.21914C1.11732 2.25666 1.71322 1.47363 2.44568 1.47363H17.5543C18.2868 1.47363 18.8827 2.25666 18.8827 3.21914V16.7863H18.8868Z" fill="#00B2FF"/>
<path d="M12.6134 9.83144L17.5047 4.06744C17.7323 3.79555 17.753 3.33334 17.5461 3.02883C17.3392 2.72975 16.9875 2.70256 16.7557 2.97445L10.0104 10.9299L8.69449 9.38554C8.69035 9.38011 8.68621 9.37467 8.68621 9.36923C8.65724 9.33117 8.62827 9.29854 8.59517 9.26591L3.24032 2.96901C3.00858 2.69713 2.65683 2.72431 2.44992 3.02883C2.24301 3.33334 2.2637 3.79555 2.49544 4.06744L7.44474 9.88038L2.51613 15.9435C2.29267 16.2208 2.28025 16.683 2.4913 16.9821C2.60303 17.1343 2.75201 17.2159 2.90099 17.2159C3.03755 17.2159 3.17411 17.1506 3.2817 17.0201L8.2848 10.87L9.64214 12.4633C9.74973 12.5884 9.88215 12.6482 10.0146 12.6482C10.147 12.6482 10.2836 12.5829 10.387 12.4579L11.7816 10.8157L16.7557 17.0256C16.8633 17.1615 17.004 17.2268 17.1406 17.2268C17.2896 17.2268 17.4344 17.1506 17.5461 16.9984C17.7572 16.7047 17.7489 16.2371 17.5254 15.9598L12.6134 9.83144Z" fill="#00B2FF"/>
</svg>
