<svg xmlns="http://www.w3.org/2000/svg" xmlns:xlink="http://www.w3.org/1999/xlink"><symbol id="sprite-benefits">
  <symbol viewBox="0 0 30 30" fill="none" id="detective">
    <path d="M15 9.44336C14.6766 9.44336 14.4141 9.7501 14.4141 10.1286C14.4141 10.5068 14.6766 10.8138 15 10.8138C15.3234 10.8138 15.5859 10.5068 15.5859 10.1286C15.5859 9.7501 15.3234 9.44336 15 9.44336Z" fill="#F8FDFF"/>
    <path d="M28.2422 13.5548H25.9623C24.7604 9.54141 23.0166 2.50427 19.8576 0.512584C18.2776 -0.482321 16.7841 0.212534 16.2225 1.62419C15.9835 2.22429 15.5063 2.53987 15 2.53987C14.4868 2.53987 14.0135 2.21733 13.7775 1.62473C13.2358 0.261248 11.778 -0.49731 10.2534 0.368046C7.04384 2.19083 5.24895 9.51116 4.0377 13.5548H1.75781C0.786667 13.5548 0 14.4744 0 15.6104C0 16.7437 0.788498 17.6661 1.75781 17.6661H28.2422C29.2133 17.6661 30 16.7461 30 15.6104C30 14.4769 29.2115 13.5548 28.2422 13.5548ZM6.09604 10.8139H12.6562C12.9799 10.8139 13.2422 10.5069 13.2422 10.1287C13.2422 9.75019 12.9799 9.44344 12.6562 9.44344H6.50574C8.27202 3.73766 9.92203 2.07975 10.7652 1.6009C11.6851 1.07896 12.4422 1.51579 12.7151 2.20261C13.1449 3.28237 14.0341 3.9103 15 3.9103C15.9682 3.9103 16.8562 3.27996 17.2849 2.20261C17.5658 1.49625 18.3268 1.10519 19.3016 1.71894C20.1487 2.2532 21.7937 3.96625 23.494 9.44344H17.3438C17.0201 9.44344 16.7578 9.75019 16.7578 10.1287C16.7578 10.5071 17.0201 10.8139 17.3438 10.8139H23.9042C24.2004 11.8128 24.508 12.8436 24.7208 13.5548H5.27939C5.49156 12.8454 5.79849 11.8171 6.09604 10.8139ZM28.2422 16.2956H1.75781C1.43463 16.2956 1.17188 15.9881 1.17188 15.6104C1.17188 15.2319 1.43417 14.9252 1.75781 14.9252H28.2422C28.5654 14.9252 28.8281 15.2325 28.8281 15.6104C28.8281 15.9886 28.5656 16.2956 28.2422 16.2956Z" fill="#F8FDFF"/>
    <path d="M13.8281 20.4069H4.45312C4.12949 20.4069 3.86719 20.7136 3.86719 21.0921V23.833C3.86719 27.2334 6.23291 29.9999 9.14062 29.9999C11.3438 29.9999 13.2939 28.4151 14.0696 26.0276C14.6587 25.7133 15.3413 25.7133 15.9304 26.0276C16.7061 28.4151 18.6562 29.9997 20.8594 29.9997C23.7671 29.9997 26.1328 27.2334 26.1328 23.8327V21.0918C26.1328 20.7134 25.8705 20.4066 25.5469 20.4066H16.1719C15.8482 20.4066 15.5859 20.7134 15.5859 21.0918V21.7771H14.4141V21.0918C14.4141 20.7136 14.1518 20.4069 13.8281 20.4069ZM9.14062 28.6295C6.87904 28.6295 5.03906 26.4778 5.03906 23.833V21.7773H13.2422V23.833C13.2422 26.4847 11.412 28.6295 9.14062 28.6295ZM16.7578 21.7773H24.9609V23.833C24.9609 26.4778 23.121 28.6295 20.8594 28.6295C18.5822 28.6295 16.7578 26.4783 16.7578 23.833V21.7773ZM15.5859 23.1478V23.833C15.5859 24.0519 15.5967 24.2701 15.6161 24.4866C15.209 24.3996 14.791 24.3996 14.3838 24.4866C14.4033 24.2701 14.4141 24.0519 14.4141 23.833V23.1478H15.5859Z" fill="#F8FDFF"/>
    <path d="M9.14062 25.8886C8.17131 25.8886 7.38281 24.9662 7.38281 23.8329C7.38281 23.4544 7.12051 23.1477 6.79688 23.1477C6.47324 23.1477 6.21094 23.4544 6.21094 23.8329C6.21094 25.7218 7.52518 27.259 9.14062 27.259C9.46426 27.259 9.72656 26.952 9.72656 26.5738C9.72656 26.1953 9.46426 25.8886 9.14062 25.8886Z" fill="#F8FDFF"/>
    <path d="M20.8594 27.259C22.4748 27.259 23.7891 25.7218 23.7891 23.8329C23.7891 23.4544 23.5268 23.1477 23.2031 23.1477C22.8795 23.1477 22.6172 23.4544 22.6172 23.8329C22.6172 24.9662 21.8287 25.8886 20.8594 25.8886C20.5357 25.8886 20.2734 26.1953 20.2734 26.5738C20.2734 26.952 20.5357 27.259 20.8594 27.259Z" fill="#F8FDFF"/>
  </symbol>
</symbol><symbol id="sprite-one">
  <symbol viewBox="0 0 30 30" fill="none" id="ok">
    <path d="M15.1711 12.6428C16.3282 12.6428 17.2282 11.6785 17.2068 10.6285C17.2282 9.57849 16.3497 8.59277 15.1925 8.59277C14.0782 8.59277 13.1568 9.49277 13.1568 10.6071C13.1568 11.7213 14.0568 12.6428 15.1711 12.6428Z" fill="#F8FDFF"/>
    <path d="M15 0C6.72856 0 0 6.72857 0 15C0 23.2929 6.72856 30 15 30C23.2928 30 29.9999 23.2714 29.9999 15C30.0214 6.72857 23.2928 0 15 0ZM15.2143 5.67857C17.9143 5.67857 20.1428 7.90714 20.1214 10.6286C20.1214 13.3714 17.8714 15.5786 15.1285 15.5357C12.4285 15.4929 10.2643 13.2857 10.2643 10.6071C10.2643 7.88571 12.4714 5.67857 15.2143 5.67857ZM20.7214 17.25C20.7214 17.2929 20.7 17.3143 20.7 17.3571C20.6357 17.7857 20.4214 18.1286 20.0571 18.3643C19.8214 18.5143 19.5643 18.6643 19.3071 18.7929C18.6643 19.1143 17.9785 19.3714 17.2714 19.5429C17.1857 19.5643 17.1857 19.5643 17.25 19.6286C17.6357 20.0143 18.0428 20.4214 18.4285 20.8071C18.9214 21.3 19.4357 21.8143 19.9285 22.3071C20.6357 23.0143 20.4428 24.1929 19.5428 24.6214C19.3928 24.7071 19.2214 24.7286 19.05 24.7714C18.9643 24.7714 18.8571 24.7714 18.7714 24.7714C18.75 24.7714 18.7285 24.7714 18.7285 24.75C18.3857 24.7071 18.1071 24.5357 17.85 24.3C16.9928 23.4429 16.1143 22.5643 15.2571 21.7071C15.1928 21.6429 15.1928 21.6429 15.1285 21.7071C14.25 22.5857 13.3928 23.4429 12.5143 24.3214C12.3643 24.4714 12.2143 24.5786 12.0214 24.6643C11.8928 24.7286 11.7428 24.75 11.6143 24.7714C11.5286 24.7714 11.4428 24.7714 11.3357 24.7714C11.2928 24.7714 11.2714 24.75 11.2286 24.75C10.65 24.6429 10.2643 24.3214 10.0928 23.7643C9.92141 23.2071 10.05 22.7143 10.4571 22.3071C10.8214 21.9429 11.1643 21.6 11.5286 21.2357C12.0643 20.7 12.6 20.1643 13.1143 19.65C13.1785 19.5857 13.1785 19.5857 13.0928 19.5643C13.0714 19.5643 13.0285 19.5429 13.0071 19.5429C12.0428 19.3071 11.1643 18.9214 10.3286 18.4071C9.8357 18.0857 9.59998 17.6143 9.66427 17.0357C9.77141 15.9643 10.9714 15.3857 11.8714 15.9643C12.0428 16.0714 12.1928 16.1571 12.3857 16.2429C13.3714 16.7357 14.4214 16.95 15.5143 16.8857C16.05 16.8643 16.5857 16.7571 17.1214 16.5857C17.6357 16.4143 18.0857 16.1786 18.5571 15.9214C19.3285 15.4714 20.3357 15.8357 20.6357 16.6714C20.6785 16.8 20.7 16.9071 20.7214 17.0357C20.7214 17.1 20.7214 17.1643 20.7214 17.25Z" fill="#F8FDFF"/>
  </symbol>

  <symbol viewBox="0 0 30 30" fill="none" id="pinterest">
    <path d="M14.9999 0C23.2847 0 30 6.71625 30 15.0001C30 23.2848 23.2847 30 14.9999 30C6.71522 30 0 23.2847 0 15.0001C0 6.71625 6.71532 0 14.9999 0Z" fill="#F8FDFF"/>
    <path d="M15 5C9.4823 5 5 9.4823 5 15C5 20.5177 9.4823 25 15 25C20.5177 25 25 20.5177 25 15C25 9.4823 20.5177 5 15 5ZM15 5.86957C20.0477 5.86957 24.1304 9.95225 24.1304 15C24.1304 20.0477 20.0477 24.1304 15 24.1304C14.0767 24.1304 13.186 23.9922 12.3463 23.7381C12.7203 23.1128 13.2032 22.219 13.395 21.481C13.509 21.0434 13.9776 19.2587 13.9776 19.2587C14.2821 19.84 15.1719 20.332 16.1192 20.332C18.9383 20.332 20.9706 17.7394 20.9706 14.5177C20.9706 11.4289 18.4502 9.11855 15.2072 9.11855C11.1725 9.11855 9.03108 11.8264 9.03108 14.775C9.03108 16.1462 9.7604 17.8531 10.9282 18.3967C11.105 18.4791 11.2 18.4434 11.2407 18.2719C11.2719 18.1418 11.4297 17.5073 11.5005 17.2121C11.5232 17.1179 11.5122 17.0365 11.436 16.9438C11.0495 16.475 10.7396 15.6138 10.7396 14.8106C10.7396 12.7487 12.3006 10.7532 14.9601 10.7532C17.2564 10.7532 18.8646 12.3186 18.8646 14.5567C18.8646 17.0853 17.5879 18.8375 15.9265 18.8375C15.0089 18.8375 14.3219 18.0784 14.5423 17.1476C14.8065 16.0366 15.3167 14.8378 15.3167 14.0353C15.3167 13.3177 14.9316 12.7191 14.1338 12.7191C13.1958 12.7191 12.4423 13.6889 12.4423 14.989C12.4423 15.8162 12.7225 16.3765 12.7225 16.3765C12.7225 16.3765 11.7959 20.2941 11.6262 21.0233C11.4561 21.7519 11.5017 22.7332 11.5718 23.4638C8.22658 22.1098 5.86957 18.8345 5.86957 15C5.86957 9.95225 9.95225 5.86957 15 5.86957Z" fill="#041827"/>
  </symbol>

  <symbol viewBox="0 0 30 30" fill="none" id="vk">
    <path d="M21.617 17.4544C20.3818 16.2726 20.2935 16.2726 21.3523 14.9091C22.6758 13.1819 24.4405 11.0002 22.8523 11.0002H19.9406C19.4112 11.0002 19.323 11.3638 19.1465 11.8184C18.4406 13.5455 17.0289 15.8181 16.4995 15.4545C15.9701 15.0909 16.2348 13.7273 16.2348 11.5457C16.323 11.2729 16.2348 11.0002 16.0583 10.8184C15.8819 10.6366 15.6172 10.4548 15.3525 10.4548C14.9113 10.3639 14.4702 10.273 14.029 10.273C12.3526 10.273 11.2056 11.0002 11.8232 11.0911C12.9702 11.2729 12.882 13.8182 12.6173 14.9091C12.1761 16.8181 10.4115 13.4546 9.61736 11.7275C9.52913 11.2729 9.1762 11.0002 8.73504 11.0002H6.44099C6.08806 11.0002 5.82336 11.0911 5.82336 11.3638C5.82336 11.8184 8.02917 16.2726 10.0585 18.5452C12.0879 20.7269 14.1172 20.5451 15.529 20.5451C15.7054 20.5451 15.8819 20.4542 15.9701 20.3633C16.0583 20.2724 16.1466 20.0906 16.1466 19.9088C16.1466 18.4543 16.676 17.7271 17.6465 18.727C18.7053 19.8179 18.97 20.5451 20.2935 20.5451H22.6758C23.2934 20.5451 23.4699 20.3633 23.4699 20.0906C23.5581 19.4543 22.4993 18.2725 21.617 17.4544ZM15.3525 0.000910576C23.5581 0.182718 30.0873 7.00048 29.9991 15.2727C29.9109 23.5449 23.117 30.09 14.9113 29.9991C6.61745 29.9082 0 23.2722 0 15C0.0882327 6.63687 6.97038 -0.0899929 15.3525 0.000910576Z" fill="#F8FDFF"/>
  </symbol>
</symbol></svg>