<svg xmlns="http://www.w3.org/2000/svg" xmlns:xlink="http://www.w3.org/1999/xlink"><symbol id="sprite-benefits">
  <symbol width="30" height="30" viewBox="0 0 30 30" fill="none" id="detective">
    <path d="M15 9.44336C14.6766 9.44336 14.4141 9.7501 14.4141 10.1286C14.4141 10.5068 14.6766 10.8138 15 10.8138C15.3234 10.8138 15.5859 10.5068 15.5859 10.1286C15.5859 9.7501 15.3234 9.44336 15 9.44336Z" fill="#00B2FF"/>
    <path d="M28.2422 13.5548H25.9623C24.7604 9.54141 23.0166 2.50427 19.8576 0.512584C18.2776 -0.482321 16.7841 0.212534 16.2225 1.62419C15.9835 2.22429 15.5063 2.53987 15 2.53987C14.4868 2.53987 14.0135 2.21733 13.7775 1.62473C13.2358 0.261248 11.778 -0.49731 10.2534 0.368046C7.04384 2.19083 5.24895 9.51116 4.0377 13.5548H1.75781C0.786667 13.5548 0 14.4744 0 15.6104C0 16.7437 0.788498 17.6661 1.75781 17.6661H28.2422C29.2133 17.6661 30 16.7461 30 15.6104C30 14.4769 29.2115 13.5548 28.2422 13.5548ZM6.09604 10.8139H12.6562C12.9799 10.8139 13.2422 10.5069 13.2422 10.1287C13.2422 9.75019 12.9799 9.44344 12.6562 9.44344H6.50574C8.27202 3.73766 9.92203 2.07975 10.7652 1.6009C11.6851 1.07896 12.4422 1.51579 12.7151 2.20261C13.1449 3.28237 14.0341 3.9103 15 3.9103C15.9682 3.9103 16.8562 3.27996 17.2849 2.20261C17.5658 1.49625 18.3268 1.10519 19.3016 1.71894C20.1487 2.2532 21.7937 3.96625 23.494 9.44344H17.3438C17.0201 9.44344 16.7578 9.75019 16.7578 10.1287C16.7578 10.5071 17.0201 10.8139 17.3438 10.8139H23.9042C24.2004 11.8128 24.508 12.8436 24.7208 13.5548H5.27939C5.49156 12.8454 5.79849 11.8171 6.09604 10.8139ZM28.2422 16.2956H1.75781C1.43463 16.2956 1.17188 15.9881 1.17188 15.6104C1.17188 15.2319 1.43417 14.9252 1.75781 14.9252H28.2422C28.5654 14.9252 28.8281 15.2325 28.8281 15.6104C28.8281 15.9886 28.5656 16.2956 28.2422 16.2956Z" fill="#00B2FF"/>
    <path d="M13.8281 20.4069H4.45312C4.12949 20.4069 3.86719 20.7136 3.86719 21.0921V23.833C3.86719 27.2334 6.23291 29.9999 9.14062 29.9999C11.3438 29.9999 13.2939 28.4151 14.0696 26.0276C14.6587 25.7133 15.3413 25.7133 15.9304 26.0276C16.7061 28.4151 18.6562 29.9997 20.8594 29.9997C23.7671 29.9997 26.1328 27.2334 26.1328 23.8327V21.0918C26.1328 20.7134 25.8705 20.4066 25.5469 20.4066H16.1719C15.8482 20.4066 15.5859 20.7134 15.5859 21.0918V21.7771H14.4141V21.0918C14.4141 20.7136 14.1518 20.4069 13.8281 20.4069ZM9.14062 28.6295C6.87904 28.6295 5.03906 26.4778 5.03906 23.833V21.7773H13.2422V23.833C13.2422 26.4847 11.412 28.6295 9.14062 28.6295ZM16.7578 21.7773H24.9609V23.833C24.9609 26.4778 23.121 28.6295 20.8594 28.6295C18.5822 28.6295 16.7578 26.4783 16.7578 23.833V21.7773ZM15.5859 23.1478V23.833C15.5859 24.0519 15.5967 24.2701 15.6161 24.4866C15.209 24.3996 14.791 24.3996 14.3838 24.4866C14.4033 24.2701 14.4141 24.0519 14.4141 23.833V23.1478H15.5859Z" fill="#00B2FF"/>
    <path d="M9.14062 25.8886C8.17131 25.8886 7.38281 24.9662 7.38281 23.8329C7.38281 23.4544 7.12051 23.1477 6.79688 23.1477C6.47324 23.1477 6.21094 23.4544 6.21094 23.8329C6.21094 25.7218 7.52518 27.259 9.14062 27.259C9.46426 27.259 9.72656 26.952 9.72656 26.5738C9.72656 26.1953 9.46426 25.8886 9.14062 25.8886Z" fill="#00B2FF"/>
    <path d="M20.8594 27.259C22.4748 27.259 23.7891 25.7218 23.7891 23.8329C23.7891 23.4544 23.5268 23.1477 23.2031 23.1477C22.8795 23.1477 22.6172 23.4544 22.6172 23.8329C22.6172 24.9662 21.8287 25.8886 20.8594 25.8886C20.5357 25.8886 20.2734 26.1953 20.2734 26.5738C20.2734 26.952 20.5357 27.259 20.8594 27.259Z" fill="#00B2FF"/>
  </symbol>

  <symbol width="30" height="30" viewBox="0 0 30 30" fill="none" id="people">
    <path d="M26.7976 23.9084C27.1191 23.464 27.3094 22.9187 27.3094 22.3295V18.8086C27.3094 18.485 27.047 18.2227 26.7234 18.2227H24.1048C22.8942 18.2227 21.9094 19.2075 21.9094 20.418V22.3295C21.9094 22.9183 22.0994 23.4632 22.4205 23.9075C22.02 23.9725 21.6346 24.1008 21.2752 24.2886C20.4611 23.0739 19.1273 22.2361 17.5946 22.0948C17.5887 22.0931 17.5826 22.0918 17.5765 22.0904C18.1249 21.478 18.4592 20.6701 18.4592 19.7854V15C18.4592 14.6764 18.1968 14.4141 17.8733 14.4141H14.3142C12.7849 14.4141 11.5408 15.6582 11.5408 17.1874V19.7853C11.5408 20.6701 11.8751 21.4779 12.4235 22.0903C12.4174 22.0918 12.4113 22.0931 12.4054 22.0947C10.8725 22.236 9.53865 23.0739 8.72461 24.2889C8.36508 24.1011 7.97965 23.9726 7.57928 23.9077C7.90049 23.4634 8.09062 22.9184 8.09062 22.3295V18.8086C8.09062 18.485 7.82824 18.2227 7.50469 18.2227H4.88602C3.67547 18.2227 2.69062 19.2075 2.69062 20.418V22.3295C2.69062 22.9187 2.88088 23.464 3.20244 23.9084C1.38879 24.2048 0 25.7821 0 27.6782V29.4141C0 29.7377 0.262383 30 0.585938 30H29.4141C29.7376 30 30 29.7377 30 29.4141V27.6782C30 25.7821 28.6112 24.2048 26.7976 23.9084ZM3.8625 20.418C3.8625 19.8537 4.32164 19.3945 4.88602 19.3945H6.91875V20.1081C6.91875 20.4581 6.6341 20.7427 6.28424 20.7427H3.8625V20.418ZM3.8625 21.9145H6.28424C6.50748 21.9145 6.72123 21.8736 6.91875 21.7992V22.3295C6.91875 23.1721 6.23326 23.8576 5.39062 23.8576C4.54799 23.8576 3.8625 23.1721 3.8625 22.3295V21.9145ZM5.76838 25.0295L5.39062 25.4072L5.01287 25.0295H5.76838ZM7.88391 27.0548V28.8281H1.17188V27.6782C1.17188 26.364 2.13416 25.2708 3.391 25.0649L4.97631 26.6502C5.08623 26.7601 5.23523 26.8218 5.39062 26.8218C5.54602 26.8218 5.69502 26.7601 5.80494 26.6502L7.39072 25.0644C7.6708 25.1099 7.94016 25.2002 8.19117 25.3323C7.99266 25.8694 7.88391 26.4496 7.88391 27.0548ZM15.0001 22.0727C13.7388 22.0727 12.7127 21.0466 12.7127 19.7854V19.0109H16.2145C16.6028 19.0109 16.9685 18.9117 17.2874 18.7375V19.7854C17.2874 21.0466 16.2613 22.0727 15.0001 22.0727ZM16.0214 23.2445L15 24.2659L13.9786 23.2445H16.0214ZM12.7126 17.1874H12.7127C12.7127 16.3044 13.4311 15.5859 14.3142 15.5859H17.2873V16.7663C17.2873 17.3578 16.806 17.8391 16.2145 17.8391H12.7126V17.1874ZM20.9442 28.8281H19.8047H10.1953H9.05584V27.6562H12.8711C13.1947 27.6562 13.4571 27.3939 13.4571 27.0703C13.4571 26.7467 13.1947 26.4844 12.8711 26.4844H9.09867C9.3498 24.8191 10.6828 23.5045 12.3564 23.2796L14.5857 25.5088C14.7001 25.6233 14.8501 25.6805 15 25.6805C15.1499 25.6805 15.2999 25.6233 15.4143 25.5088L17.6436 23.2796C19.5043 23.5297 20.9442 25.1268 20.9442 27.0548V28.8281ZM23.0813 20.418C23.0813 19.8537 23.5404 19.3945 24.1048 19.3945H26.1375V20.1081C26.1375 20.4581 25.8529 20.7427 25.503 20.7427H23.0813V20.418ZM23.0813 21.9145H25.503C25.7262 21.9145 25.94 21.8736 26.1375 21.7992V22.3295C26.1375 23.1721 25.452 23.8576 24.6094 23.8576C23.7667 23.8576 23.0813 23.1721 23.0813 22.3295V21.9145ZM24.9871 25.0295L24.6094 25.4072L24.2316 25.0295H24.9871ZM22.116 28.8281V27.0548C22.116 26.4496 22.0073 25.8693 21.8087 25.3322C22.0596 25.2 22.3289 25.1098 22.609 25.0642L24.195 26.6502C24.3049 26.7601 24.4539 26.8218 24.6093 26.8218C24.7647 26.8218 24.9137 26.7601 25.0236 26.6502L26.6089 25.0649C27.8658 25.2708 28.8281 26.364 28.8281 27.6782V28.8281H22.116Z" fill="#00B2FF"/>
    <path d="M17.888 3.82847C17.6591 3.59966 17.2882 3.59966 17.0593 3.82847L14.1841 6.70372L12.9412 5.46077C12.7123 5.2319 12.3414 5.2319 12.1125 5.46071C11.8837 5.68952 11.8837 6.06054 12.1125 6.2894L13.7698 7.94667C13.8797 8.05653 14.0287 8.11829 14.1841 8.11829C14.3395 8.11829 14.4885 8.05653 14.5984 7.94667L17.888 4.6571C18.1168 4.42829 18.1168 4.05728 17.888 3.82847Z" fill="#00B2FF"/>
    <path d="M17.3955 0.508091C17.1 0.376314 16.7535 0.509029 16.6217 0.804576C16.4898 1.10012 16.6226 1.44659 16.9182 1.57836C18.6173 2.33616 19.7153 4.02758 19.7153 5.88747C19.7153 8.48762 17.5998 10.603 14.9997 10.603C12.3995 10.603 10.2841 8.48762 10.2841 5.88747C10.2841 4.03719 11.3741 2.34928 13.0611 1.58739C13.356 1.4542 13.4871 1.1071 13.3538 0.812193C13.2207 0.517232 12.8734 0.386158 12.5787 0.519341C10.473 1.47044 9.1123 3.57752 9.1123 5.88741C9.11225 9.13379 11.7534 11.7749 14.9997 11.7749C18.246 11.7749 20.8871 9.13379 20.8871 5.88747C20.8871 3.56557 19.5166 1.45403 17.3955 0.508091Z" fill="#00B2FF"/>
    <path d="M15.021 0H15C14.6764 0 14.4141 0.262324 14.4141 0.585938C14.4141 0.909551 14.6764 1.17188 15 1.17188H15.0155C15.0164 1.17188 15.0173 1.17188 15.0183 1.17188C15.3406 1.17188 15.6026 0.911367 15.6042 0.588691C15.6057 0.265078 15.3446 0.00152344 15.021 0Z" fill="#00B2FF"/>
    <path d="M15.4142 26.6561C15.3053 26.5471 15.1541 26.4844 15 26.4844C14.8459 26.4844 14.6947 26.5471 14.5857 26.6561C14.4768 26.765 14.4141 26.9162 14.4141 27.0703C14.4141 27.2244 14.4767 27.3756 14.5857 27.4846C14.6948 27.5936 14.8459 27.6562 15 27.6562C15.1541 27.6562 15.3053 27.5936 15.4142 27.4846C15.5232 27.3756 15.5859 27.2244 15.5859 27.0703C15.5859 26.9162 15.5232 26.765 15.4142 26.6561Z" fill="#00B2FF"/>
  </symbol>

  <symbol width="30" height="30" viewBox="0 0 30 30" fill="none" id="tag">

    <path d="M9.48652 7.35921C9.37754 7.2502 9.22637 7.1875 9.07227 7.1875C8.91816 7.1875 8.76699 7.2502 8.65801 7.35921C8.54908 7.46821 8.48633 7.6194 8.48633 7.77353C8.48633 7.92765 8.54902 8.07885 8.65801 8.18785C8.76699 8.29691 8.91816 8.35955 9.07227 8.35955C9.22637 8.35955 9.37754 8.29685 9.48652 8.18785C9.59545 8.07885 9.6582 7.92765 9.6582 7.77353C9.6582 7.6194 9.59551 7.46821 9.48652 7.35921Z" fill="#00B2FF"/>
    <path d="M29.8286 2.45028L29.1041 1.72484L29.8284 1.00045C30.0572 0.771606 30.0572 0.400534 29.8284 0.171632C29.5995 -0.0572108 29.2286 -0.0572108 28.9997 0.171632L28.2758 0.89555L27.562 0.180716C27.4521 0.0707773 27.3032 0.00889294 27.1478 0.00883434L17.2305 0.0033257C17.23 0.0033257 17.2294 0.0033257 17.2289 0.0033257C16.4458 0.0033257 15.7096 0.308294 15.1558 0.862147L10.207 5.81172C9.97816 6.04056 9.97816 6.41164 10.207 6.64054C10.4358 6.86938 10.8067 6.86938 11.0357 6.64054L15.9845 1.69096C16.317 1.35845 16.7588 1.17544 17.2289 1.17544C17.2293 1.17544 17.2296 1.17544 17.2299 1.17544L26.9044 1.18083L27.4473 1.72443L25.2732 3.89882C24.3513 3.34654 23.1359 3.46697 22.3423 4.26057C21.889 4.71404 21.6393 5.31688 21.6393 5.95811C21.6393 6.59934 21.889 7.20219 22.3423 7.65565C22.8103 8.12365 23.425 8.35765 24.0397 8.35765C24.6543 8.35765 25.269 8.12365 25.737 7.65565C26.5293 6.86317 26.6505 5.64998 26.1012 4.72839L28.2755 2.55371L28.8281 3.10698L28.8227 12.7698C28.8224 13.2395 28.6393 13.6812 28.3072 14.0134L14.0089 28.3137C13.6765 28.6462 13.2346 28.8292 12.7645 28.8292C12.2945 28.8292 11.8525 28.6462 11.5201 28.3137L1.68738 18.4794C1.35492 18.147 1.17188 17.7049 1.17188 17.2348C1.17188 16.7647 1.35492 16.3227 1.68738 15.9902L8.00344 9.67322C8.23225 9.44438 8.23225 9.07331 8.00344 8.84441C7.77457 8.61556 7.40367 8.61556 7.17475 8.84441L0.858691 15.1614C0.30498 15.7152 0 16.4516 0 17.2348C0 18.0181 0.30498 18.7545 0.858691 19.3083L10.6914 29.1425C11.263 29.7141 12.0137 30 12.7645 30C13.5154 30 14.2661 29.7141 14.8376 29.1425L29.1358 14.8421C29.6891 14.2888 29.994 13.5529 29.9945 12.7703L30 2.86471C30.0001 2.7093 29.9384 2.56022 29.8286 2.45028ZM24.9083 6.82678C24.6762 7.05884 24.3677 7.18666 24.0397 7.18666C23.7115 7.18666 23.403 7.05884 23.171 6.82678C22.692 6.34776 22.692 5.56829 23.171 5.08927C23.4105 4.8497 23.725 4.72998 24.0397 4.72998C24.1581 4.72998 24.2766 4.74703 24.3911 4.78102L23.7148 5.45741C23.486 5.68625 23.486 6.05732 23.7148 6.28623C23.8292 6.40068 23.9791 6.45787 24.1291 6.45787C24.279 6.45787 24.429 6.40068 24.5434 6.28623L25.2178 5.61171C25.3396 6.0289 25.2366 6.49843 24.9083 6.82678Z" fill="#00B2FF"/>
    <path d="M25.0324 11.7988L18.2039 4.96926C17.2994 4.06455 15.8274 4.06467 14.923 4.96926L4.11707 15.7769C3.67885 16.2151 3.4375 16.7978 3.4375 17.4176C3.4375 18.0373 3.67879 18.6201 4.11701 19.0583L10.9455 25.8877C11.3837 26.326 11.9663 26.5674 12.586 26.5674C13.2057 26.5674 13.7883 26.3261 14.2264 25.8878L25.0324 15.0802C25.4706 14.6419 25.7119 14.0593 25.7119 13.4395C25.7119 12.8197 25.4706 12.237 25.0324 11.7988ZM24.2037 14.2514L13.3978 25.0591C13.181 25.2759 12.8927 25.3954 12.586 25.3954C12.2794 25.3954 11.9911 25.2759 11.7743 25.059L4.9457 18.2296C4.72885 18.0127 4.60943 17.7243 4.60943 17.4176C4.60938 17.1109 4.72885 16.8225 4.9457 16.6057L15.7517 5.79807C15.9755 5.57421 16.2695 5.46228 16.5635 5.46228C16.8575 5.46228 17.1515 5.57427 17.3753 5.79807L24.2037 12.6276C24.4206 12.8444 24.54 13.1328 24.54 13.4395C24.54 13.7462 24.4206 14.0346 24.2037 14.2514Z" fill="#00B2FF"/>
    <path d="M19.1097 11.7231C19.3385 11.4943 19.3385 11.1232 19.1097 10.8943C18.8808 10.6654 18.5099 10.6654 18.281 10.8943L17.9436 11.2317C17.0428 10.6752 15.8868 10.7499 15.1561 11.4806C14.7301 11.9067 14.5121 12.4853 14.5423 13.1099C14.5716 13.713 14.8313 14.2888 15.2735 14.7311C15.2735 14.7311 15.2736 14.7311 15.2736 14.7312C15.7448 15.2028 15.7975 15.9172 15.3908 16.3239C14.984 16.7307 14.2695 16.678 13.7981 16.2066C13.3266 15.735 13.274 15.0204 13.6807 14.6136C13.9095 14.3848 13.9095 14.0137 13.6807 13.7848C13.4518 13.556 13.0809 13.556 12.852 13.7848C12.1214 14.5156 12.0467 15.6717 12.6032 16.5728L12.2029 16.9731C11.974 17.2019 11.974 17.573 12.2029 17.8019C12.3176 17.9165 12.4675 17.9737 12.6175 17.9737C12.7675 17.9737 12.9173 17.9164 13.0318 17.802L13.4323 17.4014C13.826 17.6445 14.2681 17.7677 14.7024 17.7677C15.2619 17.7677 15.8082 17.5641 16.2196 17.1528C17.083 16.2891 17.0305 14.8314 16.1027 13.9028C16.1025 13.9027 16.1024 13.9025 16.1022 13.9023C15.8663 13.6664 15.728 13.3649 15.7129 13.0531C15.6989 12.7629 15.7954 12.4988 15.9848 12.3094C16.3915 11.9027 17.1059 11.9553 17.5774 12.4266C17.5774 12.4267 17.5774 12.4267 17.5775 12.4268C17.5775 12.4269 17.5776 12.4269 17.5776 12.4269C18.0489 12.8984 18.1015 13.6129 17.6948 14.0197C17.466 14.2485 17.466 14.6196 17.6948 14.8485C17.8092 14.9629 17.9592 15.0201 18.1091 15.0201C18.259 15.0201 18.409 14.9629 18.5234 14.8485C19.2541 14.1177 19.3288 12.9616 18.7723 12.0605L19.1097 11.7231Z" fill="#00B2FF"/>
    <path d="M13.1797 21.4383L10.1702 18.4284C9.94141 18.1997 9.57051 18.1996 9.34153 18.4284C9.11272 18.6572 9.11272 19.0283 9.34153 19.2572L12.351 22.2671C12.4655 22.3815 12.6154 22.4388 12.7653 22.4388C12.9153 22.4388 13.0652 22.3815 13.1797 22.2671C13.4085 22.0383 13.4085 21.6672 13.1797 21.4383Z" fill="#00B2FF"/>
    <path d="M8.55873 16.8221C8.4498 16.7132 8.29916 16.6504 8.14453 16.6504C7.99043 16.6504 7.83984 16.7131 7.73027 16.8221C7.62129 16.9311 7.55859 17.0823 7.55859 17.237C7.55859 17.3911 7.62123 17.5423 7.73027 17.6513C7.83926 17.7603 7.99043 17.823 8.14453 17.823C8.29922 17.823 8.4498 17.7603 8.55873 17.6513C8.6683 17.5417 8.731 17.3911 8.731 17.237C8.731 17.0823 8.6683 16.9317 8.55873 16.8221Z" fill="#00B2FF"/>

  </symbol>

  <symbol width="30" height="30" viewBox="0 0 30 30" fill="none" id="watch">
    <path d="M3.29827 9.99619L1.7606 8.73459C0.925222 8.04955 0.925222 6.93443 1.7606 6.24893C2.59598 5.56366 3.95536 5.56366 4.79074 6.24893L6.43248 7.59567C8.14509 6.6172 10.0974 5.93994 12.1429 5.61493V3.86719H10.7143C10.3198 3.86719 10 3.60489 10 3.28125V1.75781C10 0.788498 10.9612 0 12.1429 0H17.8571C19.0388 0 20 0.788498 20 1.75781V3.28125C20 3.60489 19.6802 3.86719 19.2857 3.86719H17.8571V5.61493C19.9023 5.93971 21.8549 6.6172 23.5675 7.59567L25.2093 6.24893C26.0444 5.56366 27.4037 5.56366 28.2394 6.24893C29.0748 6.9342 29.0748 8.04932 28.2394 8.73459L26.7017 9.99619C28.8331 12.174 30 14.8867 30 17.6953C30 24.4801 23.2709 30 15 30C6.72907 30 -1.90735e-06 24.4801 -1.90735e-06 17.6953C-1.90735e-06 14.8867 1.16685 12.174 3.29827 9.99619ZM3.78069 7.07748C3.50195 6.84906 3.04911 6.84929 2.77065 7.07748C2.49247 7.30591 2.49247 7.67761 2.77065 7.90604L4.24665 9.11659C4.57924 8.83644 4.92801 8.56934 5.29074 8.31642L3.78069 7.07748ZM18.5714 1.75781C18.5714 1.43463 18.2511 1.17188 17.8571 1.17188H12.1429C11.7489 1.17188 11.4286 1.43463 11.4286 1.75781V2.69531H18.5714V1.75781ZM13.5714 3.86719V5.44601C14.5181 5.37323 15.4816 5.37323 16.4286 5.44601V3.86719H13.5714ZM27.2294 7.07748C26.9509 6.84929 26.4978 6.84906 26.2193 7.07748L24.7093 8.31642C25.072 8.56934 25.4208 8.83644 25.7533 9.11659L27.2294 7.90604C27.5075 7.67761 27.5075 7.30591 27.2294 7.07748ZM15 28.8281C22.4833 28.8281 28.5714 23.8339 28.5714 17.6953C28.5714 14.9874 27.373 12.3784 25.1973 10.3484C24.5979 9.78928 23.9291 9.27841 23.2095 8.82935C21.4062 7.7037 19.2718 6.96281 17.0368 6.68655C16.368 6.60439 15.6828 6.5625 15 6.5625C14.3172 6.5625 13.632 6.60439 12.9634 6.68655C10.7282 6.96281 8.59375 7.7037 6.79018 8.82935C6.07087 9.27841 5.40206 9.78928 4.80273 10.3484C2.62695 12.3784 1.42857 14.9874 1.42857 17.6953C1.42857 23.8339 7.51674 28.8281 15 28.8281Z" fill="#F2F5F7"/>
    <path d="M15.0002 19.4531C13.8186 19.4531 12.8574 18.6646 12.8574 17.6953C12.8574 16.9315 13.4545 16.2801 14.2859 16.0382V11.8359C14.2859 11.5123 14.6057 11.25 15.0002 11.25C15.3947 11.25 15.7145 11.5123 15.7145 11.8359V16.0382C16.546 16.2801 17.1431 16.9315 17.1431 17.6953C17.1431 18.6646 16.1819 19.4531 15.0002 19.4531ZM15.0002 17.1094C14.6062 17.1094 14.2859 17.3721 14.2859 17.6953C14.2859 18.0185 14.6062 18.2812 15.0002 18.2812C15.3942 18.2812 15.7145 18.0185 15.7145 17.6953C15.7145 17.3721 15.3942 17.1094 15.0002 17.1094Z" fill="#F2F5F7"/>
    <path d="M7.39049 11.5136C7.40165 11.5028 7.41281 11.4921 7.42536 11.482C7.43876 11.4708 7.45299 11.4607 7.46722 11.4506C8.72614 10.4289 10.2814 9.67292 11.9692 9.26413C12.3478 9.17258 12.7448 9.34973 12.8564 9.6601C12.9681 9.97046 12.7521 10.2964 12.3737 10.3879C11.1232 10.691 9.95661 11.2147 8.96219 11.9139L9.44406 12.3092C9.7228 12.5381 9.7228 12.9091 9.44406 13.138C9.30455 13.2524 9.12179 13.3096 8.93876 13.3096C8.756 13.3096 8.57324 13.2524 8.43373 13.138L7.95075 12.7418C6.65834 13.9745 5.89077 15.492 5.74121 17.1093H6.42815C6.82269 17.1093 7.14244 17.3718 7.14244 17.6952C7.14244 18.0189 6.82269 18.2812 6.42815 18.2812H5.74121C5.89077 19.8987 6.65834 21.4159 7.95075 22.6487L8.43373 22.2525C8.71275 22.0238 9.16504 22.0238 9.44406 22.2525C9.72308 22.4814 9.72308 22.8524 9.44406 23.0813L8.96108 23.4775C10.4639 24.5376 12.3138 25.1673 14.2853 25.2902V24.7265C14.2853 24.4028 14.6051 24.1405 14.9996 24.1405C15.3941 24.1405 15.7139 24.4028 15.7139 24.7265V25.29C17.6854 25.1673 19.5353 24.5376 21.0381 23.4775L20.5551 23.0813C20.2761 22.8524 20.2761 22.4814 20.5551 22.2525C20.8341 22.0238 21.2864 22.0238 21.5654 22.2525L22.0484 22.6487C23.3408 21.4159 24.1084 19.8984 24.258 18.2812H23.571C23.1765 18.2812 22.8567 18.0189 22.8567 17.6952C22.8567 17.3716 23.1765 17.1093 23.571 17.1093H24.258C24.1084 15.492 23.3408 13.9745 22.0484 12.7418L21.5654 13.138C21.4259 13.2524 21.2432 13.3096 21.0604 13.3096C20.8774 13.3096 20.6946 13.2524 20.5551 13.138C20.2764 12.9091 20.2764 12.5381 20.5551 12.3092L21.037 11.9139C20.0426 11.2144 18.876 10.691 17.6254 10.3879C17.2471 10.2964 17.0311 9.97046 17.1427 9.6601C17.2543 9.34973 17.6511 9.17281 18.03 9.26413C19.7175 9.67269 21.2722 10.4285 22.5308 11.4497C22.5456 11.46 22.5601 11.4706 22.5738 11.4818C22.5861 11.4918 22.597 11.5024 22.6081 11.5129C24.6112 13.1714 25.7139 15.365 25.7139 17.6952C25.7139 20.0252 24.6112 22.2186 22.6087 23.8769C22.5975 23.8876 22.5864 23.8984 22.5738 23.9085C22.5615 23.9187 22.5487 23.9277 22.5359 23.9368C20.5141 25.5797 17.8403 26.4843 14.9996 26.4843C12.1592 26.4843 9.48535 25.58 7.46387 23.9373C7.45075 23.9279 7.43764 23.9187 7.42536 23.9085C7.41309 23.8986 7.4022 23.8879 7.39104 23.8776C5.38798 22.2191 4.2853 20.0255 4.2853 17.6952C4.2853 15.3652 5.38798 13.1718 7.39049 11.5136Z" fill="#F2F5F7"/>
    <path d="M14.9996 10.0781C14.6053 10.0781 14.2853 9.8156 14.2853 9.49219C14.2853 9.16878 14.6053 8.90625 14.9996 8.90625C15.3938 8.90625 15.7139 9.16878 15.7139 9.49219C15.7139 9.8156 15.3938 10.0781 14.9996 10.0781Z" fill="#F2F5F7"/>
  </symbol>
</symbol><symbol id="sprite-one">
  <symbol viewBox="0 0 30 30" fill="none" id="ok">
    <path d="M15.1711 12.6428C16.3282 12.6428 17.2282 11.6785 17.2068 10.6285C17.2282 9.57849 16.3497 8.59277 15.1925 8.59277C14.0782 8.59277 13.1568 9.49277 13.1568 10.6071C13.1568 11.7213 14.0568 12.6428 15.1711 12.6428Z" fill="#F8FDFF"/>
    <path d="M15 0C6.72856 0 0 6.72857 0 15C0 23.2929 6.72856 30 15 30C23.2928 30 29.9999 23.2714 29.9999 15C30.0214 6.72857 23.2928 0 15 0ZM15.2143 5.67857C17.9143 5.67857 20.1428 7.90714 20.1214 10.6286C20.1214 13.3714 17.8714 15.5786 15.1285 15.5357C12.4285 15.4929 10.2643 13.2857 10.2643 10.6071C10.2643 7.88571 12.4714 5.67857 15.2143 5.67857ZM20.7214 17.25C20.7214 17.2929 20.7 17.3143 20.7 17.3571C20.6357 17.7857 20.4214 18.1286 20.0571 18.3643C19.8214 18.5143 19.5643 18.6643 19.3071 18.7929C18.6643 19.1143 17.9785 19.3714 17.2714 19.5429C17.1857 19.5643 17.1857 19.5643 17.25 19.6286C17.6357 20.0143 18.0428 20.4214 18.4285 20.8071C18.9214 21.3 19.4357 21.8143 19.9285 22.3071C20.6357 23.0143 20.4428 24.1929 19.5428 24.6214C19.3928 24.7071 19.2214 24.7286 19.05 24.7714C18.9643 24.7714 18.8571 24.7714 18.7714 24.7714C18.75 24.7714 18.7285 24.7714 18.7285 24.75C18.3857 24.7071 18.1071 24.5357 17.85 24.3C16.9928 23.4429 16.1143 22.5643 15.2571 21.7071C15.1928 21.6429 15.1928 21.6429 15.1285 21.7071C14.25 22.5857 13.3928 23.4429 12.5143 24.3214C12.3643 24.4714 12.2143 24.5786 12.0214 24.6643C11.8928 24.7286 11.7428 24.75 11.6143 24.7714C11.5286 24.7714 11.4428 24.7714 11.3357 24.7714C11.2928 24.7714 11.2714 24.75 11.2286 24.75C10.65 24.6429 10.2643 24.3214 10.0928 23.7643C9.92141 23.2071 10.05 22.7143 10.4571 22.3071C10.8214 21.9429 11.1643 21.6 11.5286 21.2357C12.0643 20.7 12.6 20.1643 13.1143 19.65C13.1785 19.5857 13.1785 19.5857 13.0928 19.5643C13.0714 19.5643 13.0285 19.5429 13.0071 19.5429C12.0428 19.3071 11.1643 18.9214 10.3286 18.4071C9.8357 18.0857 9.59998 17.6143 9.66427 17.0357C9.77141 15.9643 10.9714 15.3857 11.8714 15.9643C12.0428 16.0714 12.1928 16.1571 12.3857 16.2429C13.3714 16.7357 14.4214 16.95 15.5143 16.8857C16.05 16.8643 16.5857 16.7571 17.1214 16.5857C17.6357 16.4143 18.0857 16.1786 18.5571 15.9214C19.3285 15.4714 20.3357 15.8357 20.6357 16.6714C20.6785 16.8 20.7 16.9071 20.7214 17.0357C20.7214 17.1 20.7214 17.1643 20.7214 17.25Z" fill="#F8FDFF"/>
  </symbol>

  <symbol viewBox="0 0 30 30" fill="none" id="pinterest">
    <path d="M14.9999 0C23.2847 0 30 6.71625 30 15.0001C30 23.2848 23.2847 30 14.9999 30C6.71522 30 0 23.2847 0 15.0001C0 6.71625 6.71532 0 14.9999 0Z" fill="#F8FDFF"/>
    <path d="M15 5C9.4823 5 5 9.4823 5 15C5 20.5177 9.4823 25 15 25C20.5177 25 25 20.5177 25 15C25 9.4823 20.5177 5 15 5ZM15 5.86957C20.0477 5.86957 24.1304 9.95225 24.1304 15C24.1304 20.0477 20.0477 24.1304 15 24.1304C14.0767 24.1304 13.186 23.9922 12.3463 23.7381C12.7203 23.1128 13.2032 22.219 13.395 21.481C13.509 21.0434 13.9776 19.2587 13.9776 19.2587C14.2821 19.84 15.1719 20.332 16.1192 20.332C18.9383 20.332 20.9706 17.7394 20.9706 14.5177C20.9706 11.4289 18.4502 9.11855 15.2072 9.11855C11.1725 9.11855 9.03108 11.8264 9.03108 14.775C9.03108 16.1462 9.7604 17.8531 10.9282 18.3967C11.105 18.4791 11.2 18.4434 11.2407 18.2719C11.2719 18.1418 11.4297 17.5073 11.5005 17.2121C11.5232 17.1179 11.5122 17.0365 11.436 16.9438C11.0495 16.475 10.7396 15.6138 10.7396 14.8106C10.7396 12.7487 12.3006 10.7532 14.9601 10.7532C17.2564 10.7532 18.8646 12.3186 18.8646 14.5567C18.8646 17.0853 17.5879 18.8375 15.9265 18.8375C15.0089 18.8375 14.3219 18.0784 14.5423 17.1476C14.8065 16.0366 15.3167 14.8378 15.3167 14.0353C15.3167 13.3177 14.9316 12.7191 14.1338 12.7191C13.1958 12.7191 12.4423 13.6889 12.4423 14.989C12.4423 15.8162 12.7225 16.3765 12.7225 16.3765C12.7225 16.3765 11.7959 20.2941 11.6262 21.0233C11.4561 21.7519 11.5017 22.7332 11.5718 23.4638C8.22658 22.1098 5.86957 18.8345 5.86957 15C5.86957 9.95225 9.95225 5.86957 15 5.86957Z" fill="#041827"/>
  </symbol>

  <symbol viewBox="0 0 30 30" fill="none" id="vk">
    <path d="M21.617 17.4544C20.3818 16.2726 20.2935 16.2726 21.3523 14.9091C22.6758 13.1819 24.4405 11.0002 22.8523 11.0002H19.9406C19.4112 11.0002 19.323 11.3638 19.1465 11.8184C18.4406 13.5455 17.0289 15.8181 16.4995 15.4545C15.9701 15.0909 16.2348 13.7273 16.2348 11.5457C16.323 11.2729 16.2348 11.0002 16.0583 10.8184C15.8819 10.6366 15.6172 10.4548 15.3525 10.4548C14.9113 10.3639 14.4702 10.273 14.029 10.273C12.3526 10.273 11.2056 11.0002 11.8232 11.0911C12.9702 11.2729 12.882 13.8182 12.6173 14.9091C12.1761 16.8181 10.4115 13.4546 9.61736 11.7275C9.52913 11.2729 9.1762 11.0002 8.73504 11.0002H6.44099C6.08806 11.0002 5.82336 11.0911 5.82336 11.3638C5.82336 11.8184 8.02917 16.2726 10.0585 18.5452C12.0879 20.7269 14.1172 20.5451 15.529 20.5451C15.7054 20.5451 15.8819 20.4542 15.9701 20.3633C16.0583 20.2724 16.1466 20.0906 16.1466 19.9088C16.1466 18.4543 16.676 17.7271 17.6465 18.727C18.7053 19.8179 18.97 20.5451 20.2935 20.5451H22.6758C23.2934 20.5451 23.4699 20.3633 23.4699 20.0906C23.5581 19.4543 22.4993 18.2725 21.617 17.4544ZM15.3525 0.000910576C23.5581 0.182718 30.0873 7.00048 29.9991 15.2727C29.9109 23.5449 23.117 30.09 14.9113 29.9991C6.61745 29.9082 0 23.2722 0 15C0.0882327 6.63687 6.97038 -0.0899929 15.3525 0.000910576Z" fill="#F8FDFF"/>
  </symbol>
</symbol></svg>